<?xml version="1.0" encoding="utf-8"?>
<!-- Generator: Adobe Illustrator 22.1.0, SVG Export Plug-In . SVG Version: 6.00 Build 0)  -->
<svg version="1.1" id="Logo" xmlns="http://www.w3.org/2000/svg" xmlns:xlink="http://www.w3.org/1999/xlink" x="0px" y="0px"
	 width="170.1px" height="77.2px" viewBox="0 0 170.1 77.2" style="enable-background:new 0 0 170.1 77.2;" xml:space="preserve">
<style type="text/css">
	.st0{fill:#8EBAE5;}
	.st1{fill:#00549F;}
	.st2{fill:#646567;}
</style>
<g>
	<path class="st0" d="M25,63.5h-5.1c-5,5.9-11.1,9.6-19.8,9.6H0v4h0.1C11.5,77.1,19,71.6,25,63.5 M104,3.9c0.1-0.2,0.2-0.3,0.3-0.5
		C98.9,1.3,92.5,0,85,0C64.2,0,52.3,9.8,43.7,22.2h4.9C56.5,11.7,67.2,4,85,4c6.8,0,12.6,1.1,17.6,3.1C102.9,6,103.3,4.9,104,3.9
		 M121.4,22.2h4.9c-2.2-3.1-4.5-6.1-7.2-8.7c-0.1,0.2-0.2,0.3-0.3,0.5c-0.7,1-1.5,1.8-2.4,2.4C118.2,18.2,119.8,20.2,121.4,22.2
		 M170.1,77.2v-4c0,0-0.1,0-0.1,0c-8.7,0-14.8-3.8-19.8-9.6h-5.1c6,8.1,13.5,13.7,24.9,13.7H170.1z"/>
	<path class="st1" d="M111.4,12.3c-1.8,0-3.3-1.5-3.3-3.3c0-1.8,1.5-3.3,3.3-3.3c1.8,0,3.3,1.5,3.3,3.3
		C114.7,10.8,113.2,12.3,111.4,12.3 M111.4,4.2c-2.6,0-4.7,2.1-4.7,4.7c0,2.6,2.1,4.7,4.7,4.7c2.6,0,4.7-2.1,4.7-4.7
		C116.1,6.3,114,4.2,111.4,4.2"/>
	<path class="st1" d="M116.5,12.4c-1.9,2.8-5.7,3.5-8.5,1.7v0c-1.4-0.9-2.3-2.3-2.6-3.9c-0.3-1.6,0-3.2,0.9-4.6
		c0.9-1.4,2.3-2.3,3.9-2.6c0.4-0.1,0.8-0.1,1.2-0.1c1.2,0,2.4,0.4,3.4,1C117.6,5.8,118.4,9.6,116.5,12.4 M116.4,1.5
		c-2-1.3-4.4-1.8-6.7-1.4c-2.3,0.5-4.4,1.8-5.7,3.8c-1.3,2-1.8,4.4-1.4,6.7c0.5,2.4,1.8,4.4,3.8,5.7c1.5,1,3.3,1.5,5,1.5
		c2.9,0,5.7-1.4,7.4-3.9C121.6,9.9,120.5,4.3,116.4,1.5"/>
	<path class="st2" d="M5.7,44.8c-0.2-2.2-0.3-4.5-0.3-7c0-2.5,0.1-4.8,0.3-7c0.2-2.2,0.6-4.1,1.2-5.7c0.6-1.6,1.4-2.9,2.5-3.9
		c1.1-0.9,2.6-1.4,4.5-1.4c1.4,0,2.5,0.2,3.5,0.7c0.9,0.5,1.7,1.1,2.2,2c0.6,0.8,0.9,1.8,1.2,2.9c0.2,1.1,0.4,2.3,0.4,3.5h5.4
		c-0.1-4.3-1.2-7.6-3.2-9.9c-2-2.3-5.2-3.5-9.6-3.5c-3,0-5.4,0.7-7.2,2c-1.8,1.3-3.2,3-4.2,5.2c-1,2.1-1.7,4.5-2,7.2
		c-0.3,2.7-0.5,5.4-0.5,8c0,2.7,0.2,5.4,0.5,8.1c0.3,2.7,0.9,5,1.9,7.2c1,2.1,2.4,3.8,4.2,5.2c1.8,1.3,4.3,2,7.3,2
		c2.3,0,4.3-0.4,5.9-1.3c1.6-0.9,2.9-2,3.9-3.5c1-1.4,1.8-3.1,2.3-5c0.5-1.9,0.8-3.8,0.9-5.9h-5.4c0,1.3-0.2,2.7-0.3,4
		s-0.6,2.5-1.1,3.6c-0.6,1.1-1.3,2-2.3,2.7c-1,0.7-2.3,1-3.9,1c-1.9,0-3.4-0.5-4.5-1.4c-1.1-0.9-1.9-2.2-2.5-3.9
		C6.3,48.9,5.9,47,5.7,44.8 M48,43.1c0,1.8-0.1,3.4-0.2,5c-0.2,1.6-0.5,2.9-0.9,4.1c-0.5,1.2-1.1,2.1-2,2.8
		c-0.8,0.7-1.9,1.1-3.2,1.1c-1.3,0-2.3-0.4-3.1-1.1c-0.8-0.7-1.4-1.6-1.9-2.8c-0.4-1.2-0.7-2.6-0.9-4.1s-0.2-3.2-0.2-5
		c0-1.7,0.1-3.4,0.2-5c0.2-1.6,0.5-3,0.9-4.2s1.1-2.1,1.9-2.8c0.8-0.7,1.8-1.1,3.1-1.1c1.3,0,2.4,0.4,3.3,1.1
		c0.8,0.7,1.5,1.6,1.9,2.8c0.5,1.2,0.8,2.6,0.9,4.2C47.9,39.7,48,41.4,48,43.1 M52.9,49.6c0.3-2,0.5-4.2,0.5-6.5
		c0-2.3-0.2-4.5-0.5-6.5c-0.3-2-0.9-3.8-1.8-5.4c-0.9-1.5-2-2.8-3.6-3.7c-1.5-0.9-3.4-1.4-5.8-1.4s-4.2,0.5-5.8,1.4
		c-1.5,0.9-2.7,2.2-3.6,3.7c-0.9,1.5-1.5,3.3-1.8,5.4c-0.3,2.1-0.5,4.2-0.5,6.5c0,2.3,0.2,4.5,0.5,6.5c0.3,2,0.9,3.8,1.8,5.4
		c0.9,1.5,2,2.8,3.6,3.7c1.5,0.9,3.4,1.4,5.8,1.4s4.2-0.5,5.7-1.4c1.5-0.9,2.7-2.2,3.6-3.7C51.9,53.5,52.5,51.7,52.9,49.6
		 M77.4,54.4c0.5-1.3,0.8-2.7,0.8-4.4c0-1.6-0.2-2.9-0.7-3.9c-0.5-1-1.1-1.9-1.8-2.5c-0.7-0.7-1.6-1.2-2.5-1.6
		c-0.9-0.4-1.9-0.7-2.9-1.1c-1-0.3-2-0.6-2.9-0.9c-0.9-0.3-1.8-0.6-2.5-1.1c-0.7-0.4-1.3-0.9-1.8-1.5c-0.5-0.6-0.7-1.4-0.7-2.4
		c0-1.1,0.2-2,0.6-2.7c0.4-0.7,0.9-1.2,1.4-1.5c0.5-0.3,1.1-0.5,1.7-0.6c0.6-0.1,1.1-0.1,1.5-0.1c1.8,0,3.1,0.5,3.8,1.6
		c0.7,1.1,1,2.7,1,4.7h5.1c0-1-0.1-2-0.2-3.2C77,32,76.6,30.9,76,29.8c-0.6-1-1.6-1.9-3-2.7c-1.3-0.7-3.2-1.1-5.5-1.1
		c-1.4,0-2.7,0.2-4,0.5c-1.2,0.4-2.3,0.9-3.3,1.7c-0.9,0.7-1.7,1.7-2.2,2.8c-0.5,1.1-0.8,2.4-0.8,3.9c0,1.6,0.2,3,0.7,4
		c0.5,1,1.1,1.9,1.8,2.5c0.7,0.6,1.6,1.2,2.6,1.5c1,0.4,1.9,0.7,2.9,1.1c1,0.3,1.9,0.6,2.9,1s1.8,0.7,2.5,1.2c0.7,0.5,1.3,1,1.8,1.7
		c0.5,0.7,0.7,1.6,0.7,2.7c0,1.2-0.2,2.1-0.6,2.8c-0.4,0.7-0.9,1.2-1.5,1.6c-0.6,0.4-1.2,0.7-1.8,0.8c-0.6,0.1-1.1,0.2-1.5,0.2
		c-1.2,0-2.3-0.2-3-0.6c-0.8-0.4-1.4-1-1.8-1.7c-0.4-0.7-0.7-1.5-0.9-2.4c-0.2-0.9-0.2-1.8-0.2-2.8h-5.1c0,0.8,0.1,1.9,0.2,3.2
		c0.1,1.3,0.5,2.5,1.2,3.8c0.7,1.2,1.8,2.3,3.3,3.2c1.5,0.9,3.6,1.3,6.4,1.3c1.5,0,2.9-0.2,4.2-0.6c1.3-0.4,2.4-1.1,3.3-1.9
		C76.1,56.7,76.9,55.7,77.4,54.4 M87.1,47.2c-0.1-1.4-0.1-2.7-0.1-3.7c0-2.9,0.2-5.3,0.5-7c0.4-1.8,0.8-3.1,1.4-4.1s1.3-1.6,2-1.8
		c0.7-0.3,1.5-0.4,2.3-0.4c1,0,1.8,0.2,2.4,0.6c0.7,0.4,1.2,0.9,1.6,1.6c0.4,0.6,0.7,1.4,0.8,2.2c0.2,0.8,0.3,1.6,0.3,2.4h5.1
		c0-0.9-0.1-2-0.4-3.2c-0.2-1.2-0.7-2.4-1.5-3.5c-0.7-1.1-1.8-2-3.1-2.8c-1.3-0.8-3.1-1.1-5.3-1.1c-2.5,0-4.5,0.5-6,1.6
		c-1.5,1.1-2.7,2.4-3.5,4.1c-0.8,1.7-1.4,3.5-1.6,5.6c-0.3,2.1-0.4,4.1-0.4,6.1c0,5.6,0.9,9.7,2.6,12.5c1.7,2.7,4.6,4.1,8.6,4.1
		c2,0,3.7-0.4,5.1-1.2c1.4-0.8,2.5-1.8,3.3-3c0.8-1.2,1.4-2.5,1.7-3.9c0.3-1.4,0.5-2.8,0.5-4h-5.1c0,0.9-0.1,1.8-0.2,2.7
		c-0.1,0.9-0.4,1.8-0.8,2.6c-0.4,0.8-0.9,1.4-1.6,2c-0.7,0.5-1.5,0.8-2.6,0.8c-1.5,0-2.7-0.5-3.5-1.4c-0.8-0.9-1.4-2-1.8-3.4
		C87.4,50,87.2,48.6,87.1,47.2 M109,59.3h5.1V27H109V59.3z M137.2,59.3h5.1V36.4c0-1,0-2-0.1-3.2c-0.1-1.2-0.4-2.3-0.9-3.3
		c-0.5-1-1.4-1.9-2.5-2.6c-1.1-0.7-2.8-1.1-4.9-1.1c-1.6,0-3.1,0.4-4.6,1.2c-1.5,0.8-2.6,2-3.3,3.4h-0.1V27H121v32.3h5.1V37
		c0-1.2,0.2-2.2,0.6-3c0.4-0.8,0.9-1.5,1.6-2c0.6-0.5,1.3-0.9,2.1-1.1c0.7-0.2,1.5-0.4,2.1-0.4c1.1,0,2,0.2,2.7,0.7
		c0.6,0.4,1.1,1,1.4,1.7c0.3,0.7,0.5,1.4,0.6,2.1c0.1,0.8,0.1,1.4,0.1,2V59.3z M164.6,39.7h-11.3v-1.2c0-0.5,0.1-1.2,0.2-2.1
		c0.1-0.9,0.4-1.9,0.8-2.8c0.4-0.9,1-1.7,1.7-2.4c0.8-0.7,1.8-1.1,3.1-1.1c1.1,0,2,0.2,2.7,0.7c0.7,0.5,1.3,1.1,1.7,1.9
		c0.4,0.8,0.7,1.6,0.9,2.6c0.2,0.9,0.2,1.9,0.2,2.7V39.7z M170.1,43.7v-2c0-1.7-0.1-3.5-0.3-5.4c-0.2-1.8-0.7-3.5-1.4-5
		c-0.7-1.5-1.8-2.7-3.3-3.7c-1.4-1-3.4-1.4-5.8-1.4c-2.5,0-4.5,0.5-6,1.6c-1.5,1.1-2.7,2.4-3.5,4.1c-0.8,1.7-1.4,3.5-1.6,5.6
		c-0.3,2.1-0.4,4.1-0.4,6.1c0,5.6,0.9,9.7,2.6,12.5c1.7,2.7,4.6,4.1,8.6,4.1c2.2,0,4-0.4,5.4-1.3c1.4-0.9,2.5-1.9,3.3-3.1
		c0.8-1.2,1.4-2.5,1.7-3.8c0.3-1.3,0.5-2.4,0.5-3.2h-5.2c0,0.6-0.1,1.3-0.2,2.2c-0.1,0.9-0.4,1.7-0.7,2.5c-0.4,0.8-0.9,1.4-1.6,2
		c-0.7,0.5-1.7,0.8-2.8,0.8c-1.5,0-2.7-0.4-3.5-1.2c-0.8-0.8-1.4-1.9-1.8-3.1c-0.4-1.2-0.6-2.6-0.7-4c-0.1-1.4-0.1-2.8-0.1-4H170.1z
		"/>
</g>
</svg>
