<svg xmlns="http://www.w3.org/2000/svg" width="335" height="80" viewBox="0 0 335 80" fill="none"><path d="M328.287 51.2078H328.052C327.801 52.8717 326.953 54.253 325.509 55.3518C324.065 56.4506 322.103 57 319.622 57C317.739 57 315.981 56.639 314.348 55.9169C312.716 55.1948 311.287 54.1274 310.063 52.7147C308.839 51.3019 307.881 49.5439 307.19 47.4404C306.5 45.337 306.154 42.904 306.154 40.1413C306.154 37.3786 306.515 34.9298 307.237 32.795C307.959 30.6602 308.964 28.8707 310.251 27.4266C311.57 25.9825 313.14 24.8837 314.96 24.1302C316.781 23.3767 318.806 23 321.035 23C323.986 23 326.529 23.6436 328.664 24.9307C330.799 26.1865 332.478 28.0859 333.703 30.6288L327.863 33.9723C327.361 32.6851 326.576 31.602 325.509 30.723C324.441 29.8126 322.95 29.3573 321.035 29.3573C318.806 29.3573 317.032 30.0009 315.714 31.2881C314.395 32.5753 313.736 34.6002 313.736 37.3629V42.6371C313.736 45.3684 314.395 47.3934 315.714 48.7119C317.032 49.9991 318.806 50.6427 321.035 50.6427C321.914 50.6427 322.746 50.5485 323.531 50.3601C324.316 50.1404 325.007 49.8264 325.603 49.4183C326.2 48.9788 326.655 48.4608 326.969 47.8643C327.314 47.2678 327.487 46.5614 327.487 45.7452V44.097H321.365V38.1163H334.315V56.4349H328.287V51.2078Z" fill="#000E52"></path><path d="M283.379 40.8951L280.224 34.3023H280.083V56.4352H273.349V23.5654H281.166L290.16 39.1056L293.315 45.6984H293.457V23.5654H300.191V56.4352H292.374L283.379 40.8951Z" fill="#000E52"></path><path d="M251.751 56.4352V50.7372H255.989V29.2635H251.751V23.5654H267.385V29.2635H263.147V50.7372H267.385V56.4352H251.751Z" fill="#000E52"></path><path d="M237.03 56.4352V50.125H222.573V44.0973L235.382 23.5654H243.764V44.6624H247.908V50.125H243.764V56.4352H237.03ZM228.224 44.6624H237.03V30.8646H236.559L228.224 44.6624Z" fill="#000E52"></path><path d="M203.188 56.4352V50.7372H207.426V29.2635H203.188V23.5654H218.822V29.2635H214.584V50.7372H218.822V56.4352H203.188Z" fill="#000E52"></path><path d="M171.624 23.5654H184.009C186.175 23.5654 188.153 23.9108 189.943 24.6014C191.732 25.2921 193.255 26.3281 194.51 27.7095C195.766 29.0594 196.739 30.7704 197.43 32.8424C198.121 34.8831 198.466 37.269 198.466 40.0003C198.466 42.7316 198.121 45.1333 197.43 47.2053C196.739 49.2459 195.766 50.9569 194.51 52.3383C193.255 53.6882 191.732 54.7085 189.943 55.3992C188.153 56.0899 186.175 56.4352 184.009 56.4352H171.624V23.5654ZM184.009 50.0779C186.144 50.0779 187.823 49.4814 189.048 48.2884C190.272 47.0954 190.884 45.1804 190.884 42.5433V37.4574C190.884 34.8203 190.272 32.9052 189.048 31.7122C187.823 30.5193 186.144 29.9228 184.009 29.9228H178.782V50.0779H184.009Z" fill="#000E52"></path><path d="M144.077 56.4352V23.5654H165.88V29.9228H151.235V36.6568H163.714V42.9671H151.235V56.4352H144.077Z" fill="#000E52"></path><path d="M120.031 40.8951L116.876 34.3023H116.735V56.4352H110V23.5654H117.818L126.812 39.1056L129.967 45.6984H130.109V23.5654H136.843V56.4352H129.025L120.031 40.8951Z" fill="#000E52"></path><path d="M21.515 18.6522C21.9894 17.7365 22.2615 16.699 22.2615 15.5963C22.2615 11.9146 19.2766 8.92969 15.5948 8.92969C11.9131 8.92969 8.92822 11.9146 8.92822 15.5963C8.92822 19.278 11.9131 22.2629 15.5948 22.2629C17.7527 22.2629 19.6646 21.2336 20.8832 19.6448L67.1815 46.3716C67.3342 46.006 67.5163 45.6582 67.7281 45.3281L21.5161 18.6522H21.515Z" fill="#F8AF00"></path><path d="M42.2748 73.3329C42.2748 77.0146 45.2597 79.9995 48.9414 79.9995C52.6231 79.9995 55.608 77.0146 55.608 73.3329C55.608 69.6512 52.6231 66.6662 48.9414 66.6662C47.8341 66.6662 46.7918 66.9408 45.8737 67.4187L19.1907 21.2031C18.8618 21.4149 18.5104 21.5924 18.146 21.745L44.8823 68.054C43.2993 69.2725 42.2748 71.1808 42.2748 73.3341" fill="#792181"></path><path d="M79.9896 48.9303C79.9896 45.2485 77.0047 42.2637 73.3231 42.2637C69.6413 42.2637 66.8776 45.0416 66.6753 48.5411H13.3104C13.3187 48.6796 13.333 48.8155 13.333 48.9552C13.333 49.2131 13.3152 49.4674 13.2856 49.7182H66.7061C67.0965 53.0272 69.9075 55.5968 73.3231 55.5968C77.0047 55.5968 79.9896 52.6121 79.9896 48.9303Z" fill="#E20613"></path><path d="M58.3948 18.46L12.1426 45.1595C10.9394 43.4251 8.93644 42.2882 6.6661 42.2882C2.9844 42.2882 -0.000488281 45.2731 -0.000488281 48.9548C-0.000488281 52.6366 2.9844 55.6214 6.6661 55.6214C10.3478 55.6214 13.3328 52.6366 13.3328 48.9548C13.3328 47.9646 13.1103 47.0276 12.7235 46.1829L58.9922 19.4726C58.7639 19.1544 58.5652 18.816 58.3948 18.46Z" fill="#FFEC00"></path><path d="M66.687 30.652H13.3126C13.0985 27.1643 10.2094 24.3994 6.6661 24.3994C3.12282 24.3994 -0.000488281 27.3843 -0.000488281 31.066C-0.000488281 34.7478 2.98441 37.7327 6.6661 37.7327C10.0899 37.7327 12.908 35.1513 13.2866 31.8292H66.7106C66.681 31.5784 66.6657 31.324 66.6657 31.066C66.6657 30.9265 66.6775 30.7892 66.687 30.652Z" fill="#8AACDB"></path><path d="M58.1902 61.8074C57.9039 62.5503 57.7406 63.3561 57.7406 64.2008C57.7406 67.8825 60.7255 70.8674 64.4072 70.8674C68.0889 70.8674 71.0738 67.8825 71.0738 64.2008C71.0738 60.5191 68.0889 57.5342 64.4072 57.5342C61.9902 57.5342 59.8796 58.8249 58.7107 60.7497L12.5886 34.1211C12.4076 34.4725 12.1958 34.8037 11.958 35.1149L58.1902 61.8074Z" fill="#ED7203"></path><path d="M37.7253 6.66663C37.7253 2.98493 34.7404 0 31.0587 0C27.3769 0 24.3921 2.98493 24.3921 6.66666C24.3921 10.3484 27.3769 13.3333 31.0587 13.3333C31.9661 13.3333 32.8309 13.1499 33.6201 12.821L60.2711 58.9881C60.5775 58.7432 60.9064 58.5267 61.2543 58.3385L34.66 12.2709C36.502 11.0842 37.7253 9.0198 37.7253 6.66545" fill="#E50060"></path><path d="M24.3913 73.3331C24.3913 77.0148 27.3763 79.9997 31.058 79.9997C34.7397 79.9997 37.7245 77.0148 37.7245 73.3331C37.7245 69.6514 34.9431 66.8853 31.4401 66.6854V13.3134C31.3123 13.3205 31.1857 13.3324 31.0568 13.3324C30.7882 13.3324 30.5244 13.3123 30.2641 13.2803V66.7161C26.9562 67.109 24.3901 69.9187 24.3901 73.3319" fill="#0069B3"></path><path d="M55.6077 6.66663C55.6077 2.98493 52.6228 0 48.941 0C45.2594 0 42.2744 2.98493 42.2744 6.66666C42.2744 10.0727 44.8299 12.8766 48.1282 13.2788V66.7171C48.3946 66.684 48.6667 66.6673 48.941 66.6673C49.064 66.6673 49.1824 66.6792 49.3043 66.6863V13.3167C52.8168 13.1274 55.6089 10.2277 55.6089 6.66785" fill="#AC2221"></path><path d="M71.074 15.6051C71.074 11.9234 68.089 8.93848 64.4073 8.93848C60.7257 8.93848 57.7407 11.9234 57.7407 15.6051C57.7407 17.8257 58.8315 19.7885 60.5008 20.9999L33.7905 67.264C34.1503 67.4261 34.4921 67.6201 34.8163 67.8402L61.5123 21.6033C62.389 22.028 63.3698 22.2729 64.4085 22.2729C68.0902 22.2729 71.0751 19.288 71.0751 15.6063" fill="#00763C"></path><path d="M45.0356 12.0576L18.3242 58.3276C17.4901 57.9526 16.5685 57.7396 15.5948 57.7396C11.9131 57.7396 8.92822 60.7245 8.92822 64.4063C8.92822 68.0879 11.9131 71.0729 15.5948 71.0729C19.2766 71.0729 22.2615 68.0879 22.2615 64.4063C22.2615 62.1182 21.108 60.101 19.3511 58.9002L46.0447 12.661C45.6899 12.4894 45.3515 12.2871 45.0344 12.0576" fill="#93C01F"></path><path d="M79.999 31.067C79.999 27.3853 77.0141 24.4004 73.3323 24.4004C69.6506 24.4004 66.6657 27.3853 66.6657 31.067C66.6657 32.0892 66.9024 33.0546 67.314 33.9206L21.0796 60.6237C21.302 60.9456 21.4889 61.291 21.6534 61.6495L67.9103 34.9345C69.1195 36.6263 71.0952 37.7336 73.3335 37.7336C77.0153 37.7336 80.0002 34.7487 80.0002 31.067" fill="#312782"></path></svg>